<svg width="64" height="40" viewBox="0 0 64 40" fill="none" xmlns="http://www.w3.org/2000/svg">
<path d="M1 1H63V39H1V1Z" fill="#D22F27"/>
<path d="M20 19.75C20.9665 19.75 21.75 18.9665 21.75 18C21.75 17.0335 20.9665 16.25 20 16.25C19.0335 16.25 18.25 17.0335 18.25 18C18.25 18.9665 19.0335 19.75 20 19.75Z" fill="#F1B31C"/>
<path d="M20 9.75C20.9665 9.75 21.75 8.9665 21.75 8C21.75 7.0335 20.9665 6.25 20 6.25C19.0335 6.25 18.25 7.0335 18.25 8C18.25 8.9665 19.0335 9.75 20 9.75Z" fill="#F1B31C"/>
<path d="M24 16.75C24.9665 16.75 25.75 15.9665 25.75 15C25.75 14.0335 24.9665 13.25 24 13.25C23.0335 13.25 22.25 14.0335 22.25 15C22.25 15.9665 23.0335 16.75 24 16.75Z" fill="#F1B31C"/>
<path d="M24 11.75C24.9665 11.75 25.75 10.9665 25.75 10C25.75 9.0335 24.9665 8.25 24 8.25C23.0335 8.25 22.25 9.0335 22.25 10C22.25 10.9665 23.0335 11.75 24 11.75Z" fill="#F1B31C"/>
<path d="M9.528 16.4448L12 8.44482L14.473 16.4448L8 11.4998H16L9.528 16.4448Z" fill="#F1B31C" stroke="#F1B31C" stroke-linecap="round" stroke-linejoin="round"/>
<path d="M1 1H63V39H1V1Z" stroke="#0A593A" stroke-width="2" stroke-linecap="round" stroke-linejoin="round"/>
</svg>
