<svg width="63" height="63" viewBox="0 0 63 63" fill="none" xmlns="http://www.w3.org/2000/svg">
<mask id="mask0_433_1154" style="mask-type:alpha" maskUnits="userSpaceOnUse" x="0" y="0" width="63" height="63">
<rect width="63" height="63" transform="matrix(-1 0 0 1 63 0)" fill="#D9D9D9"/>
</mask>
<g mask="url(#mask0_433_1154)">
<path d="M31.8281 53.3752C31.6239 53.3752 31.3978 53.3242 31.15 53.222C30.902 53.12 30.7052 52.996 30.5593 52.8502L8.64052 30.8877C8.08638 30.3335 7.67441 29.704 7.40461 28.9991C7.1348 28.2943 6.9999 27.5894 6.9999 26.8846C6.9999 26.1554 7.1348 25.4371 7.40461 24.7298C7.67441 24.0226 8.08638 23.3991 8.64052 22.8595L20.2343 11.2658C20.7739 10.7116 21.3973 10.2996 22.1046 10.0298C22.8119 9.76003 23.5302 9.62513 24.2593 9.62513C24.9642 9.62513 25.669 9.76003 26.3739 10.0298C27.0788 10.2996 27.7083 10.7116 28.2625 11.2658L29.2906 12.2939L24.1281 17.522C23.5302 18.1345 23.0343 18.8418 22.6406 19.6439C22.2468 20.446 22.0499 21.3137 22.0499 22.2471C22.0499 23.9679 22.688 25.459 23.964 26.7205C25.24 27.982 26.7385 28.6127 28.4593 28.6127C29.4802 28.6127 30.3661 28.4523 31.1171 28.1314C31.8682 27.8106 32.5453 27.3462 33.1487 26.7384L37.9968 21.9189L49.7437 33.6658C49.9333 33.8554 50.0682 34.0563 50.1484 34.2685C50.2286 34.4807 50.2687 34.7081 50.2687 34.9507C50.2687 35.4358 50.101 35.8497 49.7655 36.1924C49.4302 36.5351 49.0194 36.7065 48.5333 36.7065C48.2902 36.7065 48.0593 36.6481 47.8406 36.5314C47.6218 36.4148 47.4395 36.2835 47.2937 36.1377L38.2812 27.1252L35.2187 30.1877L44.1656 39.1564C44.3551 39.346 44.49 39.5538 44.5703 39.7799C44.6505 40.0059 44.6906 40.2356 44.6906 40.4689C44.6906 40.9356 44.5156 41.344 44.1656 41.694C43.8156 42.044 43.4072 42.219 42.9405 42.219C42.7072 42.219 42.4812 42.1679 42.2624 42.0658C42.0437 41.9637 41.8614 41.8398 41.7156 41.694L32.703 32.7033L29.6406 35.7658L38.5874 44.7346C38.7479 44.8804 38.8755 45.0748 38.9702 45.3179C39.065 45.5609 39.1124 45.804 39.1124 46.0471C39.1124 46.5138 38.9374 46.9221 38.5874 47.2721C38.2374 47.6221 37.8291 47.7971 37.3624 47.7971C37.1291 47.7971 36.914 47.757 36.7171 47.6767C36.5203 47.5965 36.327 47.4617 36.1375 47.2721L27.1249 38.2815L24.0625 41.3439L33.0749 50.3564C33.2645 50.546 33.3994 50.7538 33.4796 50.9798C33.5598 51.2059 33.5999 51.421 33.5999 51.6252C33.5999 52.1502 33.4359 52.5731 33.1077 52.8939C32.7796 53.2148 32.3531 53.3752 31.8281 53.3752ZM31.8472 57.7502C33.3511 57.7502 34.6901 57.2142 35.864 56.1424C37.0379 55.0705 37.7343 53.738 37.953 52.145C39.4405 51.9297 40.6874 51.3189 41.6937 50.3127C42.6999 49.3064 43.3124 48.0596 43.5312 46.5721C45.0187 46.3533 46.2546 45.7299 47.239 44.7018C48.2234 43.6736 48.8249 42.4377 49.0437 40.9939C50.677 40.7752 52.0186 40.0971 53.0686 38.9596C54.1186 37.8221 54.6436 36.4658 54.6436 34.8908C54.6436 34.1033 54.4909 33.326 54.1855 32.559C53.8799 31.7919 53.4421 31.1182 52.8718 30.5377L37.9968 15.6845L30.3187 23.3627C30.0562 23.6397 29.7597 23.8549 29.4291 24.008C29.0986 24.1612 28.768 24.2377 28.4374 24.2377C27.927 24.2377 27.4604 24.0299 27.0374 23.6142C26.6145 23.1986 26.403 22.7333 26.403 22.2184C26.403 21.9896 26.465 21.7366 26.589 21.4596C26.7129 21.1824 26.9135 20.9126 27.1905 20.6501L36.5749 11.2658C37.1145 10.7116 37.738 10.2996 38.4452 10.0298C39.1525 9.76003 39.8708 9.62513 40.6 9.62513C41.3048 9.62513 42.0097 9.76003 42.7145 10.0298C43.4194 10.2996 44.048 10.7095 44.6005 11.2595L54.3374 21.022C54.8771 21.5616 55.2708 22.145 55.5187 22.7721C55.7666 23.3991 55.9197 24.0845 55.9781 24.8283C56.0364 25.5721 55.9271 26.3049 55.6499 27.0268C55.3729 27.7487 55.0156 28.4086 54.5781 29.0065L57.7281 32.1564C58.5593 31.1794 59.2156 30.0382 59.6968 28.733C60.1781 27.4278 60.4041 26.1044 60.3749 24.7627C60.3458 23.4794 60.076 22.2434 59.5656 21.0548C59.0552 19.8663 58.3406 18.8127 57.4218 17.8939L47.7312 8.2033C46.7395 7.22623 45.6233 6.49707 44.3824 6.01582C43.1416 5.53457 41.8692 5.29395 40.5652 5.29395C39.2613 5.29395 37.9932 5.53457 36.7609 6.01582C35.5286 6.49707 34.4239 7.22623 33.4468 8.2033L32.4187 9.23145L31.3905 8.2033C30.3989 7.22623 29.2826 6.49707 28.0418 6.01582C26.8009 5.53457 25.5285 5.29395 24.2246 5.29395C22.9207 5.29395 21.6525 5.53457 20.4203 6.01582C19.188 6.49707 18.0833 7.22623 17.1062 8.2033L5.57806 19.7314C4.60099 20.7085 3.86453 21.8246 3.36867 23.0798C2.87285 24.3349 2.62494 25.6109 2.62494 26.9079C2.62494 28.2048 2.87285 29.4695 3.36867 30.7017C3.86453 31.934 4.60099 33.0387 5.57806 34.0158L27.4968 55.9127C28.0801 56.496 28.7478 56.9481 29.4998 57.2689C30.2517 57.5898 31.0342 57.7502 31.8472 57.7502Z" fill="url(#paint0_linear_433_1154)"/>
</g>
<defs>
<linearGradient id="paint0_linear_433_1154" x1="31.5012" y1="5.29395" x2="31.5012" y2="57.7502" gradientUnits="userSpaceOnUse">
<stop stop-color="#9BC78B"/>
<stop offset="0.725" stop-color="#0A593A"/>
</linearGradient>
</defs>
</svg>
