<svg width="36" height="36" viewBox="0 0 36 36" fill="none" xmlns="http://www.w3.org/2000/svg">
<path d="M32.111 29.629L25.4953 23.0133C27.0881 20.8929 27.9479 18.312 27.945 15.66C27.945 8.88609 22.4339 3.375 15.66 3.375C8.88609 3.375 3.375 8.88609 3.375 15.66C3.375 22.4339 8.88609 27.945 15.66 27.945C18.312 27.9479 20.8929 27.0881 23.0133 25.4953L29.629 32.111C29.9639 32.4104 30.4007 32.5702 30.8497 32.5576C31.2987 32.545 31.7258 32.3611 32.0434 32.0434C32.3611 31.7258 32.545 31.2987 32.5576 30.8497C32.5702 30.4007 32.4104 29.9639 32.111 29.629ZM6.885 15.66C6.885 13.9245 7.39964 12.2279 8.36385 10.7849C9.32806 9.34183 10.6985 8.21712 12.302 7.55296C13.9054 6.8888 15.6697 6.71502 17.3719 7.05361C19.0741 7.39219 20.6377 8.22793 21.8649 9.45514C23.0921 10.6823 23.9278 12.2459 24.2664 13.9481C24.605 15.6503 24.4312 17.4146 23.767 19.018C23.1029 20.6215 21.9782 21.9919 20.5351 22.9561C19.0921 23.9204 17.3955 24.435 15.66 24.435C13.3336 24.4322 11.1032 23.5068 9.45822 21.8618C7.81319 20.2168 6.88779 17.9864 6.885 15.66Z" fill="#020E09" fill-opacity="0.45"/>
</svg>
