<svg width="471" height="293" viewBox="0 0 471 293" fill="none" xmlns="http://www.w3.org/2000/svg">
<g clip-path="url(#clip0_433_1016)">
<path fill-rule="evenodd" clip-rule="evenodd" d="M19.9153 139.948C22.9544 131.34 26.1939 120.126 21.9247 110.701C1.55292 65.726 34.0754 65.4259 36.1849 46.2813C38.8288 22.3075 32.7117 1.82365 65.5348 10.3429C98.7697 18.7398 58.5995 55.6508 79.3386 74.0285C89.6358 83.1535 92.8252 102.52 83.0901 119.503C79.8451 125.16 89.5134 141.226 92.9643 145.589C98.4692 152.546 101.263 168.301 98.6807 177.354C95.7307 187.69 85.9733 206.246 75.409 210.336C30.0177 227.908 6.76275 177.226 19.9098 139.954L19.9153 139.948Z" fill="#9BC78B"/>
<path fill-rule="evenodd" clip-rule="evenodd" d="M73.0378 96.0126C72.4868 95.4069 71.9413 94.8345 71.3903 94.1899C66.8205 98.9357 62.2953 103.682 57.7646 108.427C57.7646 95.9348 57.7646 83.3978 57.7646 70.8607C56.9853 70.8218 56.2116 70.8218 55.4324 70.7773C55.4324 92.4783 55.4324 114.263 55.4324 136.008C55.4324 137.914 55.4324 139.781 55.4324 141.687C50.8627 136.819 46.2874 131.873 41.7621 126.961C41.2111 127.528 40.6656 128.094 40.1146 128.706C45.1908 134.263 50.3116 139.781 55.4268 145.216C55.4268 145.539 55.4268 145.866 55.4268 146.189C55.4268 169.473 55.4268 194.542 55.4268 219.611C55.4268 244.64 55.4268 269.709 55.4268 292.994C56.2061 292.955 56.9798 292.871 57.759 292.788C57.759 273.032 57.759 253.276 57.759 233.52C57.759 213.764 57.759 194.009 57.759 174.214C62.8353 168.657 67.9059 163.177 73.0267 157.664C72.4757 157.098 71.9302 156.531 71.3792 155.958C66.8094 160.826 62.2842 165.778 57.7534 170.685C57.7534 168.779 57.7534 166.912 57.7534 165.044C57.7534 147.684 57.7534 130.278 57.7534 112.918C57.7534 112.595 57.7534 112.267 57.7534 111.945C62.8297 106.632 67.9004 101.32 73.0211 96.0015L73.0378 96.0126Z" fill="#02554A"/>
<path d="M233.914 56.3286H71.7465V218.238H233.914V56.3286Z" fill="#04806F"/>
<path fill-rule="evenodd" clip-rule="evenodd" d="M52.5269 56.3287H152.827H253.128V48.0762L200.256 26.103H105.399L52.5269 48.0762V56.3287Z" fill="#04806F"/>
<path d="M188.639 16.9836H117.015V26.0975H188.639V16.9836Z" fill="#04806F"/>
<path d="M218.507 71.7056H87.1478V202.856H218.507V71.7056Z" fill="#9BC78B"/>
<path d="M216.698 73.2061H88.3389V201.361H216.698V73.2061Z" fill="#9BC78B" stroke="#9BC78B" stroke-width="0.287263" stroke-miterlimit="22.9256"/>
<path d="M221.423 85.8987H218.262V116.652H221.423V85.8987Z" fill="#9BC78B"/>
<path d="M221.423 157.915H218.262V188.668H221.423V157.915Z" fill="#9BC78B"/>
<path fill-rule="evenodd" clip-rule="evenodd" d="M98.5471 88.0659C134.738 88.0659 170.928 88.0659 207.113 88.0659L210.213 94.4901C171.958 94.4901 133.702 94.4901 95.4468 94.4901L98.5471 88.0659Z" fill="#02554A"/>
<path fill-rule="evenodd" clip-rule="evenodd" d="M207.113 99.825L95.4468 94.4956L88.3389 106.783V201.361H113.325L207.113 99.825Z" fill="#F6CF8E" fill-opacity="0.188235"/>
<path fill-rule="evenodd" clip-rule="evenodd" d="M98.5471 99.825C134.738 99.825 170.928 99.825 207.113 99.825L210.213 94.4956C171.958 94.4956 133.702 94.4956 95.4468 94.4956L98.5471 99.825Z" fill="#04806F"/>
<path d="M104.186 218.238H85.1106V292.999H104.186V218.238Z" fill="#02554A"/>
<path d="M220.544 218.238H201.469V292.999H220.544V218.238Z" fill="#02554A"/>
<path d="M253.128 49.3323H52.5269V56.3344H253.128V49.3323Z" fill="#02554A"/>
<path fill-rule="evenodd" clip-rule="evenodd" d="M117.015 26.103H105.399V11.093H111.21H117.015V26.103Z" fill="#02554A"/>
<path fill-rule="evenodd" clip-rule="evenodd" d="M188.639 26.103H200.256V11.093H194.45H188.639V26.103Z" fill="#02554A"/>
<path fill-rule="evenodd" clip-rule="evenodd" d="M104.147 11.0929H111.21H118.273V4.00748L114.55 0.000732422H107.87L104.147 4.00748V11.0929Z" fill="#04806F"/>
<path fill-rule="evenodd" clip-rule="evenodd" d="M187.387 11.0929H194.45H201.514V4.00748L197.79 0.000732422H191.111L187.387 4.00748V11.0929Z" fill="#04806F"/>
<path fill-rule="evenodd" clip-rule="evenodd" d="M262.184 177.526C264.477 171.029 266.92 162.571 263.703 155.458C248.335 121.526 272.87 121.304 274.462 106.855C276.455 88.7661 271.841 73.3114 296.604 79.7356C321.679 86.0708 291.372 113.924 307.018 127.789C314.789 134.674 317.193 149.284 309.846 162.099C307.397 166.367 314.688 178.487 317.299 181.777C321.451 187.023 323.561 198.91 321.612 205.74C319.386 213.537 312.028 227.535 304.057 230.619C269.809 243.879 252.265 205.64 262.184 177.52V177.526Z" fill="#9BC78B"/>
<path fill-rule="evenodd" clip-rule="evenodd" d="M302.265 144.377C301.853 143.916 301.436 143.488 301.024 142.999C297.573 146.578 294.161 150.162 290.743 153.741C290.743 144.316 290.743 134.858 290.743 125.399C290.159 125.366 289.569 125.366 288.984 125.338C288.984 141.715 288.984 158.148 288.984 174.553C288.984 175.992 288.984 177.398 288.984 178.837C285.533 175.164 282.088 171.43 278.67 167.729C278.258 168.156 277.841 168.584 277.429 169.046C281.259 173.241 285.121 177.404 288.984 181.505C288.984 181.749 288.984 181.994 288.984 182.238C288.984 199.805 288.984 218.722 288.984 237.638C288.984 256.522 288.984 275.438 288.984 293.005C289.569 292.977 290.159 292.91 290.743 292.849C290.743 277.945 290.743 263.04 290.743 248.13C290.743 233.226 290.743 218.321 290.743 203.384C294.573 199.194 298.402 195.059 302.265 190.897C301.853 190.469 301.436 190.041 301.024 189.613C297.573 193.286 294.161 197.021 290.743 200.722C290.743 199.282 290.743 197.876 290.743 196.465C290.743 183.367 290.743 170.235 290.743 157.137C290.743 156.892 290.743 156.647 290.743 156.403C294.573 152.396 298.402 148.384 302.265 144.377Z" fill="#02554A"/>
<path fill-rule="evenodd" clip-rule="evenodd" d="M85.1106 237.699L104.186 218.655V218.238H85.1106V237.699Z" fill="#04806F"/>
<path fill-rule="evenodd" clip-rule="evenodd" d="M201.469 237.699L220.55 218.655V218.238H201.469V237.699Z" fill="#04806F"/>
<path fill-rule="evenodd" clip-rule="evenodd" d="M71.7465 56.3286V218.238H103.356L233.914 76.8959V56.3286H71.7465Z" fill="#9BC78B" fill-opacity="0.188235"/>
<path fill-rule="evenodd" clip-rule="evenodd" d="M52.5269 56.3287H172.336L200.256 26.103H105.399L52.5269 48.0762V56.3287Z" fill="#9BC78B" fill-opacity="0.188235"/>
<path fill-rule="evenodd" clip-rule="evenodd" d="M292.463 4.58553C295.313 4.81894 297.623 7.2141 297.623 9.92046C297.623 12.6213 295.341 14.6496 292.463 14.4718C289.636 14.2217 287.303 11.8377 287.303 9.13689C287.303 6.39719 289.613 4.35213 292.463 4.58553Z" fill="#9BC78B"/>
<path fill-rule="evenodd" clip-rule="evenodd" d="M287.532 55.7507C290.409 55.8952 292.741 58.2403 292.741 61.0134C292.741 63.7142 290.437 65.8148 287.532 65.6703C284.682 65.5314 282.322 63.1807 282.322 60.4465C282.322 57.7068 284.654 55.6117 287.532 55.7507Z" fill="#9BC78B"/>
<path fill-rule="evenodd" clip-rule="evenodd" d="M15.251 13.2991C19.7651 13.7048 23.4554 17.6726 23.4554 22.1851C23.4554 26.7031 19.7873 30.0763 15.251 29.7206C10.7592 29.3316 7.09116 25.3138 7.09116 20.7624C7.09116 16.2111 10.7425 12.8878 15.251 13.2935V13.2991Z" fill="#9BC78B"/>
<path fill-rule="evenodd" clip-rule="evenodd" d="M4.11889 135.247C6.41767 135.391 8.299 136.919 8.299 138.659C8.299 140.398 6.4121 141.715 4.11889 141.537C1.8201 141.432 0 139.904 0 138.125C0 136.38 1.82567 135.102 4.11889 135.247Z" fill="#9BC78B"/>
<path fill-rule="evenodd" clip-rule="evenodd" d="M124.813 80.7415C150.618 80.7415 176.416 80.7415 202.221 80.7415C206 86.9989 206.022 95.4181 191.294 98.0966C165.49 98.0966 139.691 98.0966 113.887 98.0966C124.067 93.523 128.593 86.9933 124.813 80.7415Z" fill="white"/>
<path fill-rule="evenodd" clip-rule="evenodd" d="M331.631 105.493C331.631 107.583 333.841 109.5 334.838 110.973C333.407 111.09 332.093 111.284 332.093 112.801C332.093 115.041 334.799 113.974 336.663 113.718C339.006 113.39 340.125 113.407 340.331 110.973C339.062 110.362 339.446 110.517 337.587 110.517C337.448 108.817 336.797 108.372 335.895 107.177C332.489 102.659 331.637 105.243 331.637 105.488L331.631 105.493Z" fill="#02554A"/>
<path fill-rule="evenodd" clip-rule="evenodd" d="M381.047 7.28639C381.047 9.19251 382.633 8.65902 386.535 8.65902C390.476 8.65902 389.585 5.46362 387.448 5.46362H382.934C381.793 5.62478 381.041 6.09159 381.041 7.29195L381.047 7.28639Z" fill="#02554A"/>
<path fill-rule="evenodd" clip-rule="evenodd" d="M386.535 136.553C387.492 136.775 388.35 136.925 389.123 137.008H392.162C395.764 136.458 395.324 133.813 393.398 133.813C387.465 133.813 386.613 133.135 386.535 136.553Z" fill="#02554A"/>
<path fill-rule="evenodd" clip-rule="evenodd" d="M346.276 111.89C347.662 111.773 354.052 110.573 354.052 109.15C354.052 106.382 351.068 107.85 349.109 108.322C346.075 109.05 344.678 108.872 346.276 111.89Z" fill="#02554A"/>
<path fill-rule="evenodd" clip-rule="evenodd" d="M400.261 135.641C403.35 135.641 407.714 135.791 408.499 132.446C406.951 131.412 408.36 131.29 403.456 132.435C400.623 133.096 399.66 132.79 400.267 135.647L400.261 135.641Z" fill="#02554A"/>
<path fill-rule="evenodd" clip-rule="evenodd" d="M367.321 9.57037C367.321 12.2767 374.095 9.81488 375.559 9.11467C375.559 6.34163 375.303 6.34163 370.327 7.54754C368.813 7.91432 367.327 7.98656 367.327 9.57592L367.321 9.57037Z" fill="#02554A"/>
<path fill-rule="evenodd" clip-rule="evenodd" d="M322.024 75.3456C323.828 75.7624 324.251 76.1181 324.752 73.9674C326.583 66.0873 323.305 66.3985 322.308 68.7547C321.59 70.4608 322.024 73.345 322.024 75.3456Z" fill="#02554A"/>
<path fill-rule="evenodd" clip-rule="evenodd" d="M359.083 107.777C361.705 108.389 367.315 106.31 367.315 104.582C367.315 102.109 364.471 103.776 362.913 104.293C360.274 105.171 359.15 104.71 359.083 107.777Z" fill="#02554A"/>
<path fill-rule="evenodd" clip-rule="evenodd" d="M438.233 117.825C440.537 119.042 440.515 118.586 444.656 115.102C445.741 114.191 445.608 114.524 446.008 112.801L445.001 111.979C443.387 112.262 442.702 113.024 441.11 114.307C438.912 116.091 438.689 115.852 438.227 117.825H438.233Z" fill="#02554A"/>
<path fill-rule="evenodd" clip-rule="evenodd" d="M466.141 85.8543C469.018 85.7876 468.957 84.5595 469.876 82.2699C471.05 79.3357 471.49 79.4635 470.299 78.0853L469.803 77.6296C468.156 78.5021 468.879 77.563 468.028 79.0523C466.903 81.0195 465.718 84.0149 466.146 85.8488L466.141 85.8543Z" fill="#02554A"/>
<path fill-rule="evenodd" clip-rule="evenodd" d="M265.295 109.15C265.295 110.784 266.358 110.801 267.9 111.117C268.468 111.234 273.527 112.957 273.527 110.523C273.527 108.455 267.104 107.839 267.093 107.839C266.303 107.889 265.295 108.417 265.295 109.15Z" fill="#02554A"/>
<path fill-rule="evenodd" clip-rule="evenodd" d="M449.214 108.233C450.996 109.467 451.463 109.884 454.92 105.249C455.437 104.554 457.23 101.837 455.165 101.837C454.079 101.837 449.777 105.827 449.214 108.233Z" fill="#02554A"/>
<path fill-rule="evenodd" clip-rule="evenodd" d="M373.266 133.357C373.266 135.675 379.7 136.036 379.706 136.036C380.49 135.98 381.498 135.497 381.498 134.73C381.498 132.624 379.494 133.024 377.652 132.624C377.234 132.535 373.26 131.173 373.26 133.363L373.266 133.357Z" fill="#02554A"/>
<path fill-rule="evenodd" clip-rule="evenodd" d="M229.155 96.813C230.351 97.1297 230.802 97.6077 231.893 98.1912C234.52 99.5916 236.385 100.848 236.474 96.813C233.162 96.0405 229.283 91.0557 229.155 96.813Z" fill="#02554A"/>
<path fill-rule="evenodd" clip-rule="evenodd" d="M394.311 8.2034V9.11478C395.396 9.63716 397.678 10.0762 398.959 10.4707C401.207 11.1654 402.025 11.0876 402.092 8.2034C400.055 7.73104 394.316 4.7357 394.316 8.2034H394.311Z" fill="#02554A"/>
<path fill-rule="evenodd" clip-rule="evenodd" d="M318.367 115.085C321.045 115.708 323.85 115.269 326.6 114.63V112.346C324.791 111.923 324.223 112.29 321.546 112.318C318.896 112.346 318.423 112.457 318.367 115.085Z" fill="#02554A"/>
<path fill-rule="evenodd" clip-rule="evenodd" d="M218.173 89.0498C219.047 90.6947 218.863 90.3001 220.449 91.3449C221.095 91.7728 222.876 93.1621 223.661 93.1621C224.101 93.1621 227.279 92.2063 224.151 89.9334C223.516 89.4721 222.715 88.9997 221.924 88.4885C218.635 86.3434 218.768 87.9328 218.173 89.0553V89.0498Z" fill="#02554A"/>
<path fill-rule="evenodd" clip-rule="evenodd" d="M360.914 129.245C360.914 130.901 368.69 134.674 368.69 131.073C368.69 129.489 367.444 129.684 366.019 129.178C366.013 129.178 360.914 126.394 360.914 129.25V129.245Z" fill="#02554A"/>
<path fill-rule="evenodd" clip-rule="evenodd" d="M426.338 124.677C426.338 127.461 428.854 126.016 430.089 125.233C431.236 124.51 434.114 123.327 434.114 121.937C434.114 117.992 426.338 124.255 426.338 124.677Z" fill="#02554A"/>
<path fill-rule="evenodd" clip-rule="evenodd" d="M343.07 23.7301V25.1027C346.715 25.1027 345.569 24.208 348.035 22.2963C349.855 20.8848 350.45 21.1682 349.933 18.7119C346.715 18.7119 347.795 19.0509 345.881 20.6069C344.968 21.3516 343.07 22.3019 343.07 23.7356V23.7301Z" fill="#02554A"/>
<path fill-rule="evenodd" clip-rule="evenodd" d="M291.372 113.257C291.372 115.441 293.365 114.957 295.469 115.124C297.211 115.263 299.61 116.23 299.61 113.713C299.61 111.656 297.562 112.451 295.502 112.301C294.389 112.223 291.372 111.495 291.372 113.257Z" fill="#02554A"/>
<path fill-rule="evenodd" clip-rule="evenodd" d="M240.593 102.298C241.734 102.565 248.369 106.41 248.369 103.209C248.369 101.598 245.602 101.009 244.244 100.448C242.185 99.5917 240.665 98.9304 240.593 102.298Z" fill="#02554A"/>
<path fill-rule="evenodd" clip-rule="evenodd" d="M278.108 112.345C279.439 113.746 281.209 113.596 283.034 113.879C285.255 114.224 286.274 114.557 286.346 111.434C281.876 110.395 278.81 109.433 278.114 112.345H278.108Z" fill="#02554A"/>
<path fill-rule="evenodd" clip-rule="evenodd" d="M420.85 52.5055C422.431 52.5055 422.531 51.4274 422.893 49.977C425.225 40.6631 420.221 43.6084 419.609 50.8939C419.508 52.0554 419.57 52.5055 420.85 52.5055Z" fill="#02554A"/>
<path fill-rule="evenodd" clip-rule="evenodd" d="M324.774 62.1028C326.845 62.1028 327.518 57.218 327.518 55.2508C327.518 54.0949 325.72 51.5108 324.123 57.8015C323.711 59.4354 322.414 62.1028 324.774 62.1028Z" fill="#02554A"/>
<path fill-rule="evenodd" clip-rule="evenodd" d="M458.365 97.2744C459.918 98.3525 460.174 99.2361 462.579 95.5461C464.349 92.8286 464.772 92.9342 464.772 91.3393L463.764 90.5168C461.332 90.9948 458.588 96.4519 458.365 97.28V97.2744Z" fill="#02554A"/>
<path fill-rule="evenodd" clip-rule="evenodd" d="M422.219 39.2625C424.195 38.8013 424.69 38.2455 424.351 35.8226C424.123 34.1999 424.212 31.0378 422.676 31.0378C419.508 31.0378 421.334 37.9455 422.219 39.2625Z" fill="#02554A"/>
<path fill-rule="evenodd" clip-rule="evenodd" d="M413.53 15.9667C413.319 13.4548 407.38 9.27022 406.395 12.0433C405.816 13.6771 408.026 14.3773 409.211 15.2553C411.371 16.8503 411.209 17.5171 413.53 15.9667Z" fill="#02554A"/>
<path fill-rule="evenodd" clip-rule="evenodd" d="M372.353 102.754C374.34 103.176 374.607 102.781 376.477 101.848C379.939 100.114 380.134 100.686 380.134 97.73C377.501 97.73 377.117 98.3302 375.247 99.2471C373.149 100.275 372.414 100.036 372.358 102.754H372.353Z" fill="#02554A"/>
<path fill-rule="evenodd" clip-rule="evenodd" d="M327.518 47.4817C327.518 49.0599 329.277 50.2436 330.991 45.9257C332.895 41.1409 332.984 42.6413 331.631 40.6296C329.6 41.102 329.622 41.6522 328.882 43.3638C328.487 44.2752 327.518 46.3647 327.518 47.4817Z" fill="#02554A"/>
<path fill-rule="evenodd" clip-rule="evenodd" d="M406.206 76.7183L407.213 77.5407C409.178 77.1517 409.384 76.5515 410.419 74.9844C410.419 74.9844 414.471 69.8662 411.699 69.8662C410.107 69.8662 406.556 75.24 406.211 76.7183H406.206Z" fill="#02554A"/>
<path fill-rule="evenodd" clip-rule="evenodd" d="M339.869 115.541C339.869 116.841 343.654 120.109 344.901 120.109C345.925 120.109 345.903 119.748 346.732 119.198C346.131 116.614 339.869 111.618 339.869 115.541Z" fill="#02554A"/>
<path fill-rule="evenodd" clip-rule="evenodd" d="M415.812 20.0791C415.812 22.0408 418.429 26.4754 419.931 26.4754C422.965 26.4754 420.143 22.1741 419.408 21.0516C418.206 19.2121 417.66 18.9732 415.812 20.0791Z" fill="#02554A"/>
<path fill-rule="evenodd" clip-rule="evenodd" d="M325.687 94.9903C325.687 96.3907 326.316 97.2076 326.895 98.3524C327.741 100.031 327.457 99.9696 328.893 100.925C331.709 99.4361 330.68 99.4528 328.848 95.0292C327.212 91.078 325.692 94.279 325.692 94.9848L325.687 94.9903Z" fill="#02554A"/>
<path fill-rule="evenodd" clip-rule="evenodd" d="M415.356 65.7537C417.544 64.5978 419.475 61.2802 419.475 58.446C419.475 58.446 418.74 54.9616 415.506 61.3413C413.892 64.5312 413.614 64.1088 415.356 65.7537Z" fill="#02554A"/>
<path fill-rule="evenodd" clip-rule="evenodd" d="M322.486 82.1976C322.486 85.1151 323.204 86.2043 323.399 88.5939C326.594 88.5939 326.466 88.2994 325.915 85.204C325.581 83.3146 325.67 80.825 323.856 80.825C322.804 80.825 322.481 81.1417 322.481 82.1976H322.486Z" fill="#02554A"/>
<path fill-rule="evenodd" clip-rule="evenodd" d="M413.53 130.618V131.529C415.89 132.852 421.763 129.612 421.763 128.789C421.763 124.821 413.53 129.912 413.53 130.618Z" fill="#02554A"/>
<path fill-rule="evenodd" clip-rule="evenodd" d="M396.599 86.3099V87.6826C399.632 87.6826 398.869 87.4325 401.291 85.0596C402.76 83.6202 403.406 83.7369 403.461 81.2918C400.857 80.686 401.647 81.1473 399.693 83.0089C398.63 84.0204 396.599 84.8095 396.599 86.3155V86.3099Z" fill="#02554A"/>
<path fill-rule="evenodd" clip-rule="evenodd" d="M384.704 95.446C385.071 95.7016 385.834 96.3629 386.079 96.3629C386.969 96.3629 392.485 92.5784 392.485 91.7949C392.485 88.4716 388.021 92.0227 387.543 92.3395C385.962 93.3787 385.188 93.3898 384.709 95.4515L384.704 95.446Z" fill="#02554A"/>
<path fill-rule="evenodd" clip-rule="evenodd" d="M252.944 105.949V106.86C253.935 107.333 258.076 108.855 259.267 108.589C260.013 108.428 263.442 106.86 256.696 104.921C255.343 104.532 252.944 103.354 252.944 105.943V105.949Z" fill="#02554A"/>
<path fill-rule="evenodd" clip-rule="evenodd" d="M349.933 123.31C349.933 124.933 354.347 127.422 356.339 127.422C357.898 124.483 356.684 124.844 353.517 122.932C352.899 122.56 349.938 120.598 349.938 123.31H349.933Z" fill="#02554A"/>
<path fill-rule="evenodd" clip-rule="evenodd" d="M208.566 80.8304C208.566 82.9977 208.544 81.5751 210.965 83.9147C212.273 85.1762 212.039 85.3873 214.054 85.8541C215.891 83.1144 215.039 83.4479 212.818 81.6084C212.813 81.6029 208.566 77.096 208.566 80.8304Z" fill="#02554A"/>
<path fill-rule="evenodd" clip-rule="evenodd" d="M333.925 36.0673C336.357 36.5841 336.04 36.1006 337.403 34.0611C337.403 34.0611 341.79 28.7595 338.956 28.7595C337.598 28.7595 336.502 30.6545 335.817 31.5604C334.676 33.0719 333.925 33.422 333.925 36.0673Z" fill="#02554A"/>
<path fill-rule="evenodd" clip-rule="evenodd" d="M305.098 115.541C312.178 115.541 313.709 116.369 312.874 112.801C306.378 112.801 304.324 111.907 305.098 115.541Z" fill="#02554A"/>
<path fill-rule="evenodd" clip-rule="evenodd" d="M354.508 16.4225C357.052 16.4225 357.436 15.8779 359.089 15.0554C364.644 12.2935 361.516 10.9375 361.371 10.9375L355.204 13.9162C354.124 14.9776 354.508 14.2385 354.508 16.4169V16.4225Z" fill="#02554A"/>
<path fill-rule="evenodd" clip-rule="evenodd" d="M133.869 252.587C153.74 252.587 169.848 268.67 169.848 288.509C169.848 290.032 169.754 291.527 169.57 292.999H98.1686C97.9849 291.527 97.8903 290.032 97.8903 288.509C97.8903 268.67 113.998 252.587 133.869 252.587Z" fill="#04806F"/>
<path fill-rule="evenodd" clip-rule="evenodd" d="M86.3908 271.671C96.8773 271.671 105.382 280.157 105.382 290.632C105.382 291.432 105.332 292.227 105.232 292.999H67.5497C67.4551 292.221 67.3994 291.432 67.3994 290.632C67.3994 280.162 75.8988 271.671 86.3908 271.671Z" fill="#9BC78B"/>
<path fill-rule="evenodd" clip-rule="evenodd" d="M220.06 261.701C204.67 261.701 192.196 274.155 192.196 289.52C192.196 290.698 192.268 291.86 192.413 292.999H247.706C247.851 291.86 247.923 290.698 247.923 289.52C247.923 274.155 235.45 261.701 220.06 261.701Z" fill="#04806F"/>
<path fill-rule="evenodd" clip-rule="evenodd" d="M256.829 276.483C248.708 276.483 242.124 283.057 242.124 291.165C242.124 291.788 242.163 292.399 242.24 292.999H271.423C271.501 292.399 271.54 291.788 271.54 291.165C271.54 283.057 264.956 276.483 256.835 276.483H256.829Z" fill="#9BC78B"/>
</g>
<defs>
<clipPath id="clip0_433_1016">
<rect width="471" height="293" fill="white"/>
</clipPath>
</defs>
</svg>
