<svg width="63" height="63" viewBox="0 0 63 63" fill="none" xmlns="http://www.w3.org/2000/svg">
<g clip-path="url(#clip0_433_1146)">
<path fill-rule="evenodd" clip-rule="evenodd" d="M29.5071 52.4904C38.4255 52.4904 43.2068 52.4904 52.1252 52.4904C53.3588 42.6883 53.4053 39.5699 52.1329 29.7581C43.1467 29.7581 38.2985 29.7581 29.3133 29.7581C28.0778 39.6774 27.9867 42.5905 29.5071 52.4904ZM12.6967 46.5927H24.5804C24.0086 40.7802 24.3381 36.3894 25.3615 28.5283L25.6241 26.5078L25.7365 26.5224V25.6831H27.7744H40.2609C40.1145 22.5996 39.849 19.5383 39.4604 16.5371C30.4743 16.5371 21.4891 16.5371 12.5039 16.5371C11.2683 26.4565 11.1772 36.6937 12.6977 46.5937L12.6967 46.5927ZM25.0882 50.6686H12.3062L11.6482 52.4904H25.3682C25.2675 51.8615 25.1744 51.2549 25.0882 50.6686ZM46.1092 56.5663H26.0592H5.84155L8.83791 48.274C7.04707 37.4302 7.13526 26.1812 8.55106 15.3054L8.70418 14.1319L5.9685 6.56152H24.0639H46.2352L43.3154 14.6416C43.8299 18.2523 44.1701 21.9522 44.3406 25.6822H53.9082H55.669L55.9249 27.4236C57.581 38.7026 57.5199 43.5479 55.9268 54.8133L55.6787 56.5654H53.9092H46.1092V56.5663ZM12.4341 12.4602H39.7715L40.4295 10.6384H28.1407H11.7761L12.4341 12.4602Z" fill="url(#paint0_linear_433_1146)"/>
</g>
<defs>
<linearGradient id="paint0_linear_433_1146" x1="31.493" y1="6.56152" x2="31.493" y2="56.5663" gradientUnits="userSpaceOnUse">
<stop stop-color="#9BC78B"/>
<stop offset="0.725" stop-color="#0A593A"/>
</linearGradient>
<clipPath id="clip0_433_1146">
<rect width="63" height="63" fill="white"/>
</clipPath>
</defs>
</svg>
