<svg width="63" height="63" viewBox="0 0 63 63" fill="none" xmlns="http://www.w3.org/2000/svg">
<mask id="mask0_433_1161" style="mask-type:alpha" maskUnits="userSpaceOnUse" x="0" y="0" width="63" height="63">
<rect width="63" height="63" fill="#D9D9D9"/>
</mask>
<g mask="url(#mask0_433_1161)">
<path d="M9.62496 55.125C8.44371 55.125 7.41923 54.6912 6.55154 53.8235C5.68385 52.9558 5.25 51.9313 5.25 50.75V20.125C5.25 18.9437 5.68385 17.9192 6.55154 17.0515C7.41923 16.1838 8.44371 15.75 9.62496 15.75H21V9.62496C21 8.44371 21.4338 7.41923 22.3015 6.55154C23.1692 5.68385 24.1937 5.25 25.375 5.25H37.625C38.8063 5.25 39.8308 5.68385 40.6985 6.55154C41.5662 7.41923 42 8.44371 42 9.62496V15.75H53.375C54.5563 15.75 55.5808 16.1838 56.4485 17.0515C57.3162 17.9192 57.75 18.9437 57.75 20.125V50.75C57.75 51.9313 57.3162 52.9558 56.4485 53.8235C55.5808 54.6912 54.5563 55.125 53.375 55.125H9.62496ZM9.62496 50.75H53.375V20.125H9.62496V50.75ZM25.375 15.75H37.625V9.62496H25.375V15.75Z" fill="url(#paint0_linear_433_1161)"/>
</g>
<defs>
<linearGradient id="paint0_linear_433_1161" x1="31.5" y1="5.25" x2="31.5" y2="55.125" gradientUnits="userSpaceOnUse">
<stop stop-color="#9BC78B"/>
<stop offset="0.725" stop-color="#0A593A"/>
</linearGradient>
</defs>
</svg>
